<svg height="512" viewBox="0 0 60 60" width="512" xmlns="http://www.w3.org/2000/svg"><g id="Page-1" fill="none" fill-rule="evenodd"><g id="026---Snowdrop" fill-rule="nonzero" transform="translate(0 -1)"><path id="Shape" d="m50.17 8v6h-6v-6c.0017673-.76663319.4403247-1.46522015 1.13-1.8h.01c.47-.08.93-.14 1.36-.2h1.5c1.1032019.0032948 1.9967052.89679813 2 2z" fill="#a4c400"/><path id="Shape" d="m48.17 6h-1.5c-.264.037-.553.081-.836.123.7971709.28056427 1.3319575 1.03190743 1.336 1.877v6h3v-6c-.0032948-1.10320187-.8967981-1.9967052-2-2z" fill="#90ac00"/><path id="Shape" d="m58.17 28c.0935066 3.6935951-.5384238 7.3696631-1.86 10.82-.2437358.5934001-.7573272 1.0338685-1.38094 1.1843274-.6236129.150459-1.2815516-.0073545-1.76906-.4243274-.7677179-.6574269-1.4770366-1.3801289-2.12-2.16-1.7255647-2.0981381-3.0386499-4.5037645-3.87-7.09-1.33-4-2-9.33-1-16.33h4s8 2 8 14z" fill="#f5f5f5"/><path id="Shape" d="m50.17 14h-3s8 2 8 14c0 3.349-.832 9.82-2.229 11.386.4605005.5199641 1.1564256.7659523 1.8413934.650876.6849678-.1150762 1.2623022-.5749749 1.5276066-1.216876 1.3215762-3.4503369 1.9535066-7.1264049 1.86-10.82 0-12-8-14-8-14z" fill="#cfd8dc"/><path id="Shape" d="m47.17 30.33c-.8313501 2.5862355-2.1444353 4.9918619-3.87 7.09-.6429634.7798711-1.3522821 1.5025731-2.12 2.16-.4875084.4169729-1.1454471.5747864-1.76906.4243274-.6236128-.1504589-1.1372042-.5909273-1.38094-1.1843274-1.3215762-3.4503369-1.9535066-7.1264049-1.86-10.82 0-12 8-14 8-14h2c-1 7-.33 12.33 1 16.33z" fill="#f5f5f5"/><path id="Shape" d="m46.17 14h-2c-.3598235.1030664-.7101147.236893-1.047.4-.916 6.8-.257 12.006 1.047 15.927-1.0938253 3.4742547-3.0839975 6.5988597-5.77 9.059.7188573.8133275 1.957216.8996832 2.782.194 2.7969141-2.4844896 4.8671542-5.681438 5.99-9.25-1.332-4-2.002-9.33-1.002-16.33z" fill="#cfd8dc"/><path id="Shape" d="m51.04 37.42c-.5802678 1.4142129-1.3763999 2.7298549-2.36 3.9-.381967.4337668-.9320273.6823218-1.51.6823218s-1.128033-.248555-1.51-.6823218c-.9836001-1.1701451-1.7797322-2.4857871-2.36-3.9 1.7255647-2.0981381 3.0386499-4.5037645 3.87-7.09.8313501 2.5862355 2.1444353 4.9918619 3.87 7.09z" fill="#cfd8dc"/><path id="Shape" d="m46.67 6c-.43.06-.89.12-1.36.2h-.01c-9.62 1.61-27.48 8.35-30.63 36.12-.1670524-2.0793233-.4609328-4.1465043-.88-6.19-.3215056-1.5372541-.7254218-3.0561125-1.21-4.55 6.56-23.14 24.55-28.4 33.58-29.56 1.0990467-.14083261 2.1041674.63595335 2.245 1.735s-.6359533 2.10416739-1.735 2.245z" fill="#008a00"/><path id="Shape" d="m29.48 28.81c-.2120038 6.1095951-1.7653763 12.0977607-4.55 17.54-2.9722402 5.3275161-7.0832808 9.9336571-12.04 13.49-.1918246.1396308-.4344302.1900316-.6659976.1383596-.2315674-.0516721-.4297333-.2004268-.5440024-.4083596-.0725727-.1352809-.1103731-.2864826-.11-.44.1987569-5.0653974 1.2922821-10.0556639 3.23-14.74.3906614-.952552.8312729-1.8838446 1.32-2.79 2.9757403-5.3277938 7.0860234-9.9364999 12.04-13.5.2593209-.1834726.6001544-.2043338.8799152-.0538564s.4502268.4463557.4400848.7638564z" fill="#a4c400"/><path id="Shape" d="m28.16 28.1c-.473.34-1.053.776-1.706 1.3-.2837362 5.9076983-1.8261498 11.6866351-4.524 16.95-2.6065794 4.7047982-6.1171513 8.8481566-10.33 12.192-.011.209-.02.406-.026.588-.0117039.3181449.1585194.6152617.4388944.7660695.2803751.1508078.6221081.1290615.8811056-.0560695 4.9552671-3.5567872 9.0649124-8.1628952 12.036-13.49 2.7846237-5.4422393 4.3379962-11.4304049 4.55-17.54.010142-.3175007-.160324-.613379-.4400848-.7638564s-.6205943-.1296162-.8799152.0538564z" fill="#90ac00"/><path id="Shape" d="m11.57 59.13c-.0003731.1535174.0374273.3047191.11.44-4.63067913-6.2396843-7.91347986-13.3739867-9.64-20.95-1.4777104-7.6320589-1.35512462-15.4877643.36-23.07.07047346-.3852023.36565307-.6902483.74833099-.7733441.38267793-.0830958.77778687.072059 1.00166901.3933441 4.63640869 6.2399977 7.9197162 13.3788074 9.64 20.96.5567236 2.7182963.8911622 5.4774145 1 8.25l.01.01c-1.9377179 4.6843361-3.0312431 9.6746026-3.23 14.74z" fill="#60a917"/><path id="Shape" d="m14.8 44.39-.01-.01c-.1468919-4.3477533-.8905136-8.6547025-2.21-12.8-1.9097611-5.8875285-4.75628813-11.4286327-8.43-16.41-.22388214-.3212851-.61899108-.4764399-1.00166901-.3933441-.38267792.0830958-.67785753.3881418-.74833099.7733441-.072.314-.148.674-.226 1.055 3.18664935 4.6032538 5.68180378 9.6484789 7.406 14.975 1.3198561 4.1452072 2.0634867 8.4522078 2.21 12.8l.01.01c-1.4693798 3.5235101-2.45110179 7.2310415-2.918 11.02 1.079 1.766 2.068 3.18 2.8 4.16-.0725727-.1352809-.1103731-.2864826-.11-.44.198121-5.0652762 1.2909681-10.0555382 3.228-14.74z" fill="#549414"/><path id="Shape" d="m49.412 3.624c-.1020947-.79341328-.5158212-1.51355116-1.149815-2.00138298-.6339937-.48783183-1.4360993-.70322628-2.229185-.59861702-9.583 1.231-26.279 6.466-33.5 27.385-1.8966547-4.9314214-4.44603998-9.5862357-7.58-13.84-.45892431-.6335593-1.24827559-.9369168-2.01338448-.7737686s-1.36205325.7621129-1.52261552 1.5277686c-1.75263237 7.7248482-1.87456272 15.7303593-.358 23.505 1.7710545 7.7109904 5.11071501 14.9747775 9.811 21.339l.008-.006c.2693443.4199064.6996483.7104384 1.1897916.8033216s.996909-.0200721 1.4012084-.3123216c5.0723999-3.6572321 9.2851616-8.3778186 12.344-13.832 2.8424605-5.5802082 4.434735-11.7128196 4.666-17.971.0253467-.6987757-.3488543-1.3511627-.9648242-1.6820872s-1.3665157-.2827981-1.9351758.1240872c-4.62835 3.3501376-8.5527917 7.5776617-11.55 12.442 3.611-22.993 18.171-29.976 27.171-32.085-.0170709.11662312-.0270891.23417006-.03.352v5.287c-2.137.852-8 4.153-8 14.713-.0955121 3.8236399.5602094 7.6288632 1.93 11.2.363841.8920718 1.1347281 1.5545569 2.0713732 1.7800969s1.9245973-.0134243 2.6546268-.6420969c.422-.362.826-.744 1.213-1.141.5111314.9946663 1.1356159 1.9268629 1.861 2.778.5720825.6521408 1.3974944 1.0260566 2.265 1.0260566s1.6929175-.3739158 2.265-1.0260566c.7278602-.8500965 1.3553324-1.7812386 1.87-2.775.42.428.831.817 1.216 1.145.5382341.4635239 1.2246836.718947 1.935.72.2401861-.0001324.4795142-.0286638.713-.085.9363464-.2221167 1.7077233-.8828713 2.071-1.774 1.3715675-3.5728638 2.0289786-7.3800725 1.935-11.206 0-10.559-5.863-13.861-8-14.713v-5.287c-.0053053-1.26361412-.8018354-2.38843305-1.992-2.813.2180708-.49020546.2989479-1.03042321.234-1.563zm-46.062 12.14c3.60909342 4.8922632 6.4050354 10.3348951 8.28 16.118.4691704 1.4625978.8633502 2.9481987 1.181 4.451.5330956 2.5989894.8581254 5.2363455.972 7.887-.5780649 1.3941674-1.0762059 2.8201461-1.492 4.271-1.724-8.735-5-19.257-5.167-19.79-.10717967-.3408314-.38804915-.5985929-.73680762-.6761883-.34875847-.0775953-.71242122.036764-.95400001.3-.24157879.2632361-.32437206.6353569-.21719237.9761883.048.154 4.841 15.54 5.906 24.413-.165 1.02-.283 1.954-.367 2.785-3.65348778-5.5078087-6.27480739-11.6341606-7.736-18.08-1.42366327-7.4962763-1.31105696-15.2035153.331-22.655zm25.117 13.355c-.2607514 5.8371433-1.76712 11.5509789-4.418 16.758-2.5033118 4.4977502-5.8508091 8.4703355-9.859 11.7 2.0599735-5.2614876 4.6722551-10.2896185 7.793-15 .3214297-.4492836.2177836-1.0740702-.2315-1.3955-.4492837-.3214297-1.0740703-.2177836-1.3955.2315-2.9663629 4.4348214-5.4720304 9.1610101-7.478 14.105.5597718-4.6928796 1.955828-9.2475045 4.122-13.448 2.8520277-5.0874773 6.7623537-9.5038576 11.467-12.951zm-13.725 6.7c-.307-1.434-.685-2.855-1.117-4.233 6.367-22.016 23.175-27.356 32.675-28.575.2664027-.03675844.5363827.03533234.749.2.2123761.16150242.3507421.40174632.3838588.66649137.0331166.26474505-.0418083.53166926-.2078588.74050863-.1649737.21518433-.4090466.35558025-.678.39-.434.057-.905.129-1.4.211l-.052.008c-8.639 1.461-25.235 7.329-30.353 30.587zm31.999-28.819h1.429c.5522847 0 1 .44771525 1 1v5h-4v-5c.0033523-.33918383.1784154-.65354436.465-.835.385-.065.758-.119 1.106-.165zm-6.212 31.82c-.2441651.2083325-.5734917.2868035-.8853688.2109629-.311877-.0758406-.568396-.2967743-.6896312-.5939629-1.2718578-3.3287544-1.8779815-6.8747822-1.784-10.437 0-10.47 6.273-12.737 7.141-13h.737c-.7542799 5.124925-.3954713 10.3522065 1.052 15.326-.7904912 2.351307-2.0014779 4.5394862-3.574 6.458-.605632.7350536-1.2737959 1.4162663-1.997 2.036zm7.4 1.844c-.196842.2065255-.4696939.3234001-.755.3234001s-.558158-.1168746-.755-.3234001c-.7944799-.944496-1.453174-1.99531-1.957-3.122 1.075623-1.3769523 1.9821047-2.8780189 2.7-4.471.7203872 1.6036958 1.631639 3.1146146 2.714 4.5-.5042828 1.1162013-1.1608652 2.1571082-1.951 3.093zm9.241-12.664c.0917908 3.5628895-.5149576 7.1092765-1.786 10.439-.1214463.2970257-.3780576.5177261-.689911.5933629s-.6410608-.0029793-.885089-.2113629c-3.32-2.828-8.523-9.667-6.748-23.821h2.968c.894.273 7.141 2.553 7.141 13z" fill="#000"/></g></g></svg>