<?xml version="1.0" encoding="UTF-8"?>
<svg xmlns="http://www.w3.org/2000/svg" xmlns:xlink="http://www.w3.org/1999/xlink" width="16pt" height="16pt" viewBox="0 0 16 16" version="1.1">
<g id="surface1">
<path style=" stroke:none;fill-rule:nonzero;fill:rgb(64.313725%,76.862745%,0%);fill-opacity:1;" d="M 13.378906 1.867188 L 13.378906 3.464844 L 11.777344 3.464844 L 11.777344 1.867188 C 11.777344 1.664062 11.894531 1.476562 12.078125 1.386719 L 12.082031 1.386719 C 12.207031 1.367188 12.332031 1.347656 12.445312 1.332031 L 12.84375 1.332031 C 13.140625 1.335938 13.378906 1.574219 13.378906 1.867188 Z M 13.378906 1.867188 "/>
<path style=" stroke:none;fill-rule:nonzero;fill:rgb(56.470588%,67.45098%,0%);fill-opacity:1;" d="M 12.84375 1.332031 L 12.445312 1.332031 C 12.375 1.34375 12.296875 1.355469 12.222656 1.367188 C 12.433594 1.441406 12.578125 1.640625 12.578125 1.867188 L 12.578125 3.464844 L 13.378906 3.464844 L 13.378906 1.867188 C 13.378906 1.574219 13.140625 1.335938 12.84375 1.332031 Z M 12.84375 1.332031 "/>
<path style=" stroke:none;fill-rule:nonzero;fill:rgb(96.078431%,96.078431%,96.078431%);fill-opacity:1;" d="M 15.511719 7.199219 C 15.535156 8.183594 15.367188 9.164062 15.015625 10.085938 C 14.949219 10.242188 14.8125 10.359375 14.648438 10.402344 C 14.480469 10.441406 14.304688 10.398438 14.175781 10.289062 C 13.972656 10.113281 13.78125 9.921875 13.609375 9.710938 C 13.152344 9.152344 12.800781 8.511719 12.578125 7.820312 C 12.222656 6.753906 12.046875 5.332031 12.3125 3.464844 L 13.378906 3.464844 C 13.378906 3.464844 15.511719 4 15.511719 7.199219 Z M 15.511719 7.199219 "/>
<path style=" stroke:none;fill-rule:nonzero;fill:rgb(81.176471%,84.705882%,86.27451%);fill-opacity:1;" d="M 13.378906 3.464844 L 12.578125 3.464844 C 12.578125 3.464844 14.710938 4 14.710938 7.199219 C 14.710938 8.09375 14.488281 9.820312 14.117188 10.234375 C 14.242188 10.375 14.425781 10.441406 14.609375 10.410156 C 14.792969 10.378906 14.945312 10.257812 15.015625 10.085938 C 15.367188 9.164062 15.535156 8.183594 15.511719 7.199219 C 15.511719 4 13.378906 3.464844 13.378906 3.464844 Z M 13.378906 3.464844 "/>
<path style=" stroke:none;fill-rule:nonzero;fill:rgb(96.078431%,96.078431%,96.078431%);fill-opacity:1;" d="M 12.578125 7.820312 C 12.355469 8.511719 12.007812 9.152344 11.546875 9.710938 C 11.375 9.921875 11.1875 10.113281 10.980469 10.289062 C 10.851562 10.398438 10.675781 10.441406 10.507812 10.402344 C 10.34375 10.359375 10.207031 10.242188 10.140625 10.085938 C 9.789062 9.164062 9.621094 8.183594 9.644531 7.199219 C 9.644531 4 11.777344 3.464844 11.777344 3.464844 L 12.3125 3.464844 C 12.046875 5.332031 12.222656 6.753906 12.578125 7.820312 Z M 12.578125 7.820312 "/>
<path style=" stroke:none;fill-rule:nonzero;fill:rgb(81.176471%,84.705882%,86.27451%);fill-opacity:1;" d="M 12.3125 3.464844 L 11.777344 3.464844 C 11.683594 3.496094 11.589844 3.53125 11.5 3.574219 C 11.253906 5.386719 11.429688 6.773438 11.777344 7.820312 C 11.488281 8.746094 10.957031 9.582031 10.238281 10.234375 C 10.433594 10.453125 10.761719 10.476562 10.980469 10.289062 C 11.726562 9.625 12.28125 8.773438 12.578125 7.820312 C 12.222656 6.753906 12.046875 5.332031 12.3125 3.464844 Z M 12.3125 3.464844 "/>
<path style=" stroke:none;fill-rule:nonzero;fill:rgb(81.176471%,84.705882%,86.27451%);fill-opacity:1;" d="M 13.609375 9.710938 C 13.457031 10.089844 13.242188 10.441406 12.980469 10.753906 C 12.878906 10.867188 12.734375 10.933594 12.578125 10.933594 C 12.425781 10.933594 12.277344 10.867188 12.175781 10.753906 C 11.914062 10.441406 11.703125 10.089844 11.546875 9.710938 C 12.007812 9.152344 12.355469 8.511719 12.578125 7.820312 C 12.800781 8.511719 13.152344 9.152344 13.609375 9.710938 Z M 13.609375 9.710938 "/>
<path style=" stroke:none;fill-rule:nonzero;fill:rgb(0%,54.117647%,0%);fill-opacity:1;" d="M 12.445312 1.332031 C 12.332031 1.347656 12.207031 1.367188 12.082031 1.386719 L 12.078125 1.386719 C 9.515625 1.816406 4.753906 3.613281 3.910156 11.019531 C 3.867188 10.464844 3.789062 9.914062 3.675781 9.367188 C 3.589844 8.957031 3.484375 8.554688 3.355469 8.15625 C 5.105469 1.984375 9.902344 0.582031 12.308594 0.273438 C 12.601562 0.234375 12.871094 0.441406 12.90625 0.734375 C 12.945312 1.027344 12.738281 1.296875 12.445312 1.332031 Z M 12.445312 1.332031 "/>
<path style=" stroke:none;fill-rule:nonzero;fill:rgb(64.313725%,76.862745%,0%);fill-opacity:1;" d="M 7.863281 7.414062 C 7.804688 9.046875 7.390625 10.640625 6.648438 12.09375 C 5.855469 13.515625 4.757812 14.742188 3.4375 15.691406 C 3.386719 15.726562 3.320312 15.742188 3.257812 15.726562 C 3.199219 15.714844 3.144531 15.675781 3.113281 15.617188 C 3.09375 15.582031 3.085938 15.542969 3.085938 15.5 C 3.136719 14.152344 3.429688 12.820312 3.945312 11.570312 C 4.050781 11.316406 4.167969 11.066406 4.296875 10.828125 C 5.09375 9.40625 6.1875 8.175781 7.507812 7.226562 C 7.578125 7.179688 7.667969 7.171875 7.742188 7.210938 C 7.820312 7.253906 7.863281 7.332031 7.863281 7.414062 Z M 7.863281 7.414062 "/>
<path style=" stroke:none;fill-rule:nonzero;fill:rgb(56.470588%,67.45098%,0%);fill-opacity:1;" d="M 7.507812 7.226562 C 7.382812 7.316406 7.230469 7.433594 7.054688 7.574219 C 6.980469 9.148438 6.566406 10.691406 5.847656 12.09375 C 5.152344 13.347656 4.214844 14.453125 3.09375 15.34375 C 3.089844 15.398438 3.089844 15.453125 3.085938 15.5 C 3.082031 15.585938 3.128906 15.664062 3.203125 15.707031 C 3.277344 15.746094 3.371094 15.738281 3.4375 15.691406 C 4.761719 14.742188 5.855469 13.515625 6.648438 12.09375 C 7.390625 10.640625 7.804688 9.046875 7.863281 7.414062 C 7.863281 7.332031 7.820312 7.253906 7.742188 7.210938 C 7.667969 7.171875 7.578125 7.179688 7.507812 7.226562 Z M 7.507812 7.226562 "/>
<path style=" stroke:none;fill-rule:nonzero;fill:rgb(37.647059%,66.27451%,9.019608%);fill-opacity:1;" d="M 3.085938 15.5 C 3.085938 15.542969 3.09375 15.582031 3.113281 15.617188 C 1.878906 13.953125 1.003906 12.050781 0.542969 10.03125 C 0.148438 7.996094 0.183594 5.902344 0.640625 3.878906 C 0.660156 3.777344 0.738281 3.695312 0.839844 3.671875 C 0.941406 3.652344 1.046875 3.691406 1.105469 3.777344 C 2.34375 5.441406 3.21875 7.347656 3.675781 9.367188 C 3.824219 10.09375 3.914062 10.828125 3.945312 11.566406 L 3.945312 11.570312 C 3.429688 12.820312 3.136719 14.152344 3.085938 15.5 Z M 3.085938 15.5 "/>
<path style=" stroke:none;fill-rule:nonzero;fill:rgb(32.941176%,58.039216%,7.843137%);fill-opacity:1;" d="M 3.945312 11.570312 L 3.945312 11.566406 C 3.90625 10.410156 3.707031 9.261719 3.355469 8.15625 C 2.84375 6.585938 2.085938 5.105469 1.105469 3.777344 C 1.046875 3.691406 0.941406 3.652344 0.839844 3.671875 C 0.738281 3.695312 0.660156 3.777344 0.640625 3.878906 C 0.621094 3.964844 0.601562 4.058594 0.578125 4.160156 C 1.429688 5.390625 2.09375 6.734375 2.554688 8.15625 C 2.90625 9.261719 3.105469 10.410156 3.144531 11.566406 L 3.148438 11.570312 C 2.753906 12.511719 2.492188 13.5 2.367188 14.507812 C 2.65625 14.980469 2.921875 15.355469 3.113281 15.617188 C 3.097656 15.582031 3.085938 15.542969 3.085938 15.5 C 3.140625 14.152344 3.429688 12.820312 3.945312 11.570312 Z M 3.945312 11.570312 "/>
<path style=" stroke:none;fill-rule:nonzero;fill:rgb(0%,0%,0%);fill-opacity:1;" d="M 13.175781 0.699219 C 13.148438 0.488281 13.039062 0.296875 12.871094 0.167969 C 12.699219 0.0351562 12.488281 -0.0234375 12.277344 0.0078125 C 9.71875 0.335938 5.269531 1.730469 3.34375 7.308594 C 2.835938 5.992188 2.15625 4.753906 1.320312 3.617188 C 1.199219 3.449219 0.988281 3.367188 0.785156 3.410156 C 0.578125 3.457031 0.421875 3.617188 0.378906 3.820312 C -0.0898438 5.878906 -0.121094 8.015625 0.28125 10.085938 C 0.753906 12.144531 1.644531 14.082031 2.898438 15.777344 L 2.902344 15.777344 C 2.972656 15.886719 3.085938 15.964844 3.21875 15.992188 C 3.347656 16.015625 3.484375 15.984375 3.589844 15.90625 C 4.945312 14.933594 6.066406 13.671875 6.882812 12.21875 C 7.640625 10.730469 8.066406 9.09375 8.128906 7.425781 C 8.132812 7.238281 8.035156 7.066406 7.871094 6.976562 C 7.707031 6.890625 7.507812 6.902344 7.355469 7.011719 C 6.121094 7.90625 5.074219 9.03125 4.273438 10.328125 C 5.238281 4.199219 9.121094 2.335938 11.519531 1.773438 C 11.515625 1.804688 11.511719 1.835938 11.511719 1.867188 L 11.511719 3.277344 C 10.941406 3.503906 9.378906 4.382812 9.378906 7.199219 C 9.351562 8.21875 9.527344 9.234375 9.894531 10.1875 C 9.992188 10.425781 10.195312 10.601562 10.445312 10.660156 C 10.695312 10.722656 10.957031 10.65625 11.152344 10.488281 C 11.265625 10.394531 11.375 10.292969 11.476562 10.1875 C 11.613281 10.449219 11.78125 10.699219 11.972656 10.925781 C 12.125 11.101562 12.347656 11.199219 12.578125 11.199219 C 12.808594 11.199219 13.027344 11.101562 13.179688 10.925781 C 13.375 10.699219 13.542969 10.453125 13.679688 10.1875 C 13.792969 10.300781 13.902344 10.40625 14.003906 10.492188 C 14.148438 10.617188 14.332031 10.683594 14.519531 10.683594 C 14.585938 10.683594 14.648438 10.675781 14.710938 10.660156 C 14.960938 10.601562 15.164062 10.425781 15.261719 10.1875 C 15.628906 9.234375 15.804688 8.21875 15.777344 7.199219 C 15.777344 4.382812 14.214844 3.503906 13.644531 3.277344 L 13.644531 1.867188 C 13.644531 1.53125 13.429688 1.230469 13.113281 1.117188 C 13.171875 0.984375 13.195312 0.839844 13.175781 0.699219 Z M 0.894531 3.9375 C 1.855469 5.242188 2.601562 6.691406 3.101562 8.234375 C 3.226562 8.625 3.332031 9.019531 3.417969 9.421875 C 3.558594 10.113281 3.644531 10.820312 3.675781 11.523438 C 3.519531 11.898438 3.386719 12.277344 3.277344 12.664062 C 2.816406 10.335938 1.945312 7.527344 1.898438 7.386719 C 1.871094 7.296875 1.796875 7.226562 1.703125 7.207031 C 1.609375 7.1875 1.511719 7.214844 1.449219 7.285156 C 1.382812 7.355469 1.363281 7.457031 1.390625 7.546875 C 1.402344 7.589844 2.683594 11.691406 2.964844 14.058594 C 2.921875 14.328125 2.890625 14.578125 2.867188 14.800781 C 1.894531 13.332031 1.195312 11.699219 0.804688 9.976562 C 0.425781 7.980469 0.457031 5.925781 0.894531 3.9375 Z M 7.589844 7.5 C 7.523438 9.054688 7.121094 10.578125 6.414062 11.96875 C 5.746094 13.167969 4.851562 14.226562 3.785156 15.085938 C 4.332031 13.683594 5.03125 12.34375 5.863281 11.085938 C 5.949219 10.96875 5.921875 10.800781 5.800781 10.714844 C 5.679688 10.628906 5.515625 10.65625 5.429688 10.777344 C 4.636719 11.960938 3.96875 13.21875 3.433594 14.539062 C 3.582031 13.285156 3.957031 12.070312 4.535156 10.953125 C 5.292969 9.59375 6.335938 8.417969 7.589844 7.5 Z M 3.929688 9.285156 C 3.847656 8.902344 3.75 8.523438 3.632812 8.15625 C 5.332031 2.285156 9.8125 0.863281 12.347656 0.535156 C 12.417969 0.527344 12.488281 0.546875 12.546875 0.589844 C 12.601562 0.632812 12.640625 0.695312 12.648438 0.765625 C 12.65625 0.839844 12.636719 0.910156 12.59375 0.964844 C 12.550781 1.023438 12.484375 1.058594 12.414062 1.070312 C 12.296875 1.085938 12.171875 1.101562 12.039062 1.125 L 12.023438 1.128906 C 9.722656 1.515625 5.296875 3.082031 3.929688 9.285156 Z M 12.464844 1.601562 L 12.84375 1.601562 C 12.992188 1.601562 13.113281 1.71875 13.113281 1.867188 L 13.113281 3.199219 L 12.046875 3.199219 L 12.046875 1.867188 C 12.046875 1.777344 12.09375 1.691406 12.167969 1.644531 C 12.273438 1.625 12.371094 1.613281 12.464844 1.601562 Z M 10.808594 10.085938 C 10.742188 10.140625 10.65625 10.160156 10.570312 10.140625 C 10.488281 10.121094 10.421875 10.0625 10.386719 9.984375 C 10.046875 9.09375 9.886719 8.148438 9.910156 7.199219 C 9.910156 4.40625 11.585938 3.804688 11.816406 3.734375 L 12.011719 3.734375 C 11.8125 5.101562 11.90625 6.492188 12.292969 7.820312 C 12.082031 8.449219 11.757812 9.03125 11.339844 9.542969 C 11.179688 9.738281 11 9.921875 10.808594 10.085938 Z M 12.78125 10.578125 C 12.730469 10.632812 12.65625 10.664062 12.578125 10.664062 C 12.503906 10.664062 12.429688 10.632812 12.378906 10.578125 C 12.167969 10.324219 11.992188 10.046875 11.855469 9.746094 C 12.144531 9.378906 12.386719 8.976562 12.578125 8.550781 C 12.769531 8.980469 13.011719 9.382812 13.300781 9.753906 C 13.164062 10.050781 12.992188 10.328125 12.78125 10.578125 Z M 15.246094 7.199219 C 15.269531 8.148438 15.109375 9.097656 14.769531 9.984375 C 14.738281 10.0625 14.667969 10.121094 14.585938 10.140625 C 14.5 10.164062 14.414062 10.140625 14.347656 10.085938 C 13.464844 9.332031 12.078125 7.507812 12.550781 3.734375 L 13.339844 3.734375 C 13.578125 3.804688 15.246094 4.414062 15.246094 7.199219 Z M 15.246094 7.199219 "/>
</g>
</svg>
